<?xml version="1.0" standalone="no"?>
<!DOCTYPE svg PUBLIC "-//W3C//DTD SVG 20010904//EN"
 "http://www.w3.org/TR/2001/REC-SVG-20010904/DTD/svg10.dtd">
<svg version="1.0" xmlns="http://www.w3.org/2000/svg"
 width="225.000000pt" height="225.000000pt" viewBox="0 0 225.000000 225.000000"
 preserveAspectRatio="xMidYMid meet">
<metadata>
Created by potrace 1.14, written by Peter Selinger 2001-2017
</metadata>
<g transform="translate(0.000000,225.000000) scale(0.100000,-0.100000)"
fill="#000000" stroke="none">
<path d="M653 1643 c-18 -9 -39 -31 -48 -49 -26 -55 -18 -101 27 -150 19 -21
19 -22 -22 -86 -71 -114 -108 -260 -97 -388 8 -91 22 -131 67 -191 67 -89 167
-137 349 -170 123 -22 242 -22 386 1 100 15 141 27 220 65 83 40 90 45 137
107 97 129 87 379 -22 561 l-41 67 29 38 c39 49 46 82 26 131 -13 32 -24 43
-59 57 -58 22 -106 7 -144 -46 -26 -36 -29 -37 -52 -24 -13 7 -60 26 -104 41
-113 39 -236 38 -355 -1 -47 -15 -91 -33 -98 -38 -7 -6 -14 -9 -15 -7 -2 2
-14 19 -26 37 -41 59 -97 75 -158 45z m77 -48 c17 -9 33 -27 36 -42 6 -22 1
-31 -27 -55 -40 -33 -50 -34 -74 -8 -25 28 -25 88 0 106 24 18 29 17 65 -1z
m856 -3 c35 -23 38 -71 8 -119 l-14 -22 -44 31 c-41 29 -43 32 -34 59 15 44
57 69 84 51z m-306 -29 c126 -34 257 -133 323 -244 80 -136 105 -314 59 -429
-29 -73 -94 -144 -156 -170 -129 -55 -178 -64 -394 -74 -153 -7 -365 50 -442
120 -87 79 -122 204 -96 350 35 206 162 358 361 434 106 40 230 45 345 13z"/>
<path d="M1002 1261 c-22 -13 -11 -55 15 -59 29 -4 56 44 32 59 -18 11 -30 11
-47 0z"/>
<path d="M1237 1263 c-13 -12 -7 -33 14 -54 16 -16 23 -18 35 -8 17 14 18 41
2 57 -13 13 -41 16 -51 5z"/>
<path d="M1123 1089 c-7 -7 -10 -30 -6 -58 4 -35 1 -50 -10 -60 -14 -11 -22
-8 -52 15 -28 21 -39 24 -48 15 -16 -16 1 -41 46 -66 31 -17 41 -18 67 -8 25
9 36 9 58 -4 32 -18 68 -13 103 16 21 16 22 22 11 45 -15 33 -40 33 -52 1 -7
-17 -17 -25 -34 -25 -33 0 -38 21 -15 65 19 35 19 38 3 56 -19 21 -54 25 -71
8z"/>
</g>
</svg>
